<svg width="24" height="24" viewBox="0 0 24 24" fill="none" xmlns="http://www.w3.org/2000/svg">
<path d="M0.732398 0C0.901412 0 1.07043 0.112676 1.23944 0.225352L12 10.9859L22.7606 0.225352C22.8732 0.112676 23.0986 0 23.2676 0C23.5493 0 23.831 0.169014 23.9437 0.450704C24.0563 0.732394 24 1.01408 23.7747 1.23944L13.0141 12L23.7747 22.7606C23.9437 22.9296 24 23.2113 23.9437 23.4366C23.8873 23.7183 23.7183 23.8873 23.4366 23.9437C23.2113 24 22.9296 23.9437 22.7606 23.7746L12 13.0141L1.23944 23.7746C1.07043 23.9437 0.788736 24 0.563384 23.9437C0.281694 23.8873 0.11268 23.7183 0.0563419 23.4366C3.8743e-06 23.2113 0.0563419 22.9296 0.225356 22.7606L10.9859 12L0.225356 1.23944C0.0563419 1.01408 -0.0563342 0.732394 0.0563419 0.450704C0.169018 0.169014 0.450708 0 0.732398 0Z" fill="black"/>
</svg>
