<svg width="18" height="27" viewBox="0 0 18 27" fill="none" xmlns="http://www.w3.org/2000/svg">
<path d="M9 6.35C9.85248 6.35 10.67 6.69241 11.2728 7.3019C11.8756 7.9114 12.2143 8.73805 12.2143 9.6C12.2143 10.0268 12.1311 10.4494 11.9696 10.8437C11.8081 11.238 11.5713 11.5963 11.2728 11.8981C10.9744 12.1999 10.62 12.4393 10.2301 12.6026C9.84008 12.7659 9.42211 12.85 9 12.85C8.14752 12.85 7.32995 12.5076 6.72716 11.8981C6.12436 11.2886 5.78571 10.462 5.78571 9.6C5.78571 8.73805 6.12436 7.9114 6.72716 7.3019C7.32995 6.69241 8.14752 6.35 9 6.35ZM9 0.5C11.3869 0.5 13.6761 1.45875 15.364 3.16533C17.0518 4.87191 18 7.18653 18 9.6C18 16.425 9 26.5 9 26.5C9 26.5 0 16.425 0 9.6C0 7.18653 0.948211 4.87191 2.63604 3.16533C4.32387 1.45875 6.61305 0.5 9 0.5ZM9 3.1C7.29504 3.1 5.6599 3.78482 4.45431 5.00381C3.24872 6.22279 2.57143 7.87609 2.57143 9.6C2.57143 10.9 2.57143 13.5 9 22.223C15.4286 13.5 15.4286 10.9 15.4286 9.6C15.4286 7.87609 14.7513 6.22279 13.5457 5.00381C12.3401 3.78482 10.705 3.1 9 3.1Z" fill="black"/>
</svg>
